
<svg xmlns="http://www.w3.org/2000/svg" style="display:none">
  <symbol id="i-ruler" viewBox="0 0 24 24" fill="none" stroke="currentColor" stroke-width="1.6">
    <rect x="3" y="6" width="18" height="12" rx="2"/><path d="M7 10h2M11 10h2M15 10h2M7 14h1M10 14h1M13 14h1M16 14h1"/>
  </symbol>
  <symbol id="i-box" viewBox="0 0 24 24" fill="none" stroke="currentColor" stroke-width="1.6">
    <path d="M3 7l9-4 9 4-9 4-9-4z"/><path d="M3 7v10l9 4 9-4V7"/>
  </symbol>
  <symbol id="i-scale" viewBox="0 0 24 24" fill="none" stroke="currentColor" stroke-width="1.6">
    <circle cx="12" cy="12" r="8"/><path d="M12 12l4-2"/>
  </symbol>
  <symbol id="i-fire" viewBox="0 0 24 24" fill="none" stroke="currentColor" stroke-width="1.6">
    <path d="M12 3s3 3 3 6-2 5-2 5 4-1 4 3-3 4-5 4-5-1-5-4 3-4 3-7 2-7 2-7z"/>
  </symbol>
  <symbol id="i-drop" viewBox="0 0 24 24" fill="none" stroke="currentColor" stroke-width="1.6">
    <path d="M12 3C12 3 6 10 6 14a6 6 0 0012 0c0-4-6-11-6-11z"/>
  </symbol>
  <symbol id="i-news" viewBox="0 0 24 24" fill="none" stroke="currentColor" stroke-width="1.6">
    <rect x="3" y="5" width="18" height="14" rx="2"/><path d="M7 8h10M7 12h10M7 16h6"/>
  </symbol>
</svg>
